<?xml version="1.0" encoding="utf-8"?>
<svg width="800px" height="800px" viewBox="0 0 32 32" xmlns="http://www.w3.org/2000/svg">
  <defs>
    <style>
      .node {
        fill: none;
        stroke: currentColor;
        stroke-width: 2;
      }
      .connection {
        stroke: currentColor;
        stroke-width: 1.5;
        opacity: 0.6;
      }
    </style>
  </defs>
  
  <!-- Input Layer (5 nodes) -->
  <circle class="node" cx="6" cy="4" r="2"/>
  <circle class="node" cx="6" cy="10" r="2"/>
  <circle class="node" cx="6" cy="16" r="2"/>
  <circle class="node" cx="6" cy="22" r="2"/>
  <circle class="node" cx="6" cy="28" r="2"/>
  
  <!-- Hidden Layer (3 nodes) -->
  <circle class="node" cx="16" cy="9" r="2"/>
  <circle class="node" cx="16" cy="16" r="2"/>
  <circle class="node" cx="16" cy="23" r="2"/>
  
  <!-- Output Layer (1 node) -->
  <circle class="node" cx="26" cy="16" r="2"/>
  
  <!-- Connections from Input to Hidden Layer -->
  <!-- From input node 1 (4,4) to all hidden nodes -->
  <line class="connection" x1="8" y1="4" x2="14" y2="9"/>
  <line class="connection" x1="8" y1="4" x2="14" y2="16"/>
  <line class="connection" x1="8" y1="4" x2="14" y2="23"/>
  
  <!-- From input node 2 (6,10) to all hidden nodes -->
  <line class="connection" x1="8" y1="10" x2="14" y2="9"/>
  <line class="connection" x1="8" y1="10" x2="14" y2="16"/>
  <line class="connection" x1="8" y1="10" x2="14" y2="23"/>
  
  <!-- From input node 3 (6,16) to all hidden nodes -->
  <line class="connection" x1="8" y1="16" x2="14" y2="9"/>
  <line class="connection" x1="8" y1="16" x2="14" y2="16"/>
  <line class="connection" x1="8" y1="16" x2="14" y2="23"/>
  
  <!-- From input node 4 (6,22) to all hidden nodes -->
  <line class="connection" x1="8" y1="22" x2="14" y2="9"/>
  <line class="connection" x1="8" y1="22" x2="14" y2="16"/>
  <line class="connection" x1="8" y1="22" x2="14" y2="23"/>
  
  <!-- From input node 5 (6,28) to all hidden nodes -->
  <line class="connection" x1="8" y1="28" x2="14" y2="9"/>
  <line class="connection" x1="8" y1="28" x2="14" y2="16"/>
  <line class="connection" x1="8" y1="28" x2="14" y2="23"/>
  
  <!-- Connections from Hidden to Output Layer -->
  <!-- From hidden node 1 (16,9) to output node (26,16) -->
  <line class="connection" x1="18" y1="9" x2="24" y2="16"/>
  
  <!-- From hidden node 2 (16,16) to output node (26,16) -->
  <line class="connection" x1="18" y1="16" x2="24" y2="16"/>
  
  <!-- From hidden node 3 (16,23) to output node (26,16) -->
  <line class="connection" x1="18" y1="23" x2="24" y2="16"/>
</svg>